<?xml version="1.0"?>
<svg xmlns="http://www.w3.org/2000/svg" viewBox="0 0 64 64" width="512" height="512"><g id="Configuration"><circle cx="32" cy="55" r="1"/><path d="M36.666,28.126a1.814,1.814,0,0,0-1.3-.014l-.722-1.865a3.716,3.716,0,0,1,1.087-.223A1.977,1.977,0,0,0,34,25a2,2,0,0,0-2,2v6a2,2,0,0,0,4,0c-.006-.035-.006-.088-.008-.123a1.956,1.956,0,0,0-1.315-1.751l.646-1.893a3.928,3.928,0,0,1,2.249,1.982,1.969,1.969,0,0,0-.906-3.089Z"/><path d="M32,16A16,16,0,1,0,48,32,16.019,16.019,0,0,0,32,16Zm6,23.8V44a1,1,0,0,1-1,1H29a1,1,0,0,1-1-1V41H25a1,1,0,0,1-1-1V37H21a1,1,0,0,1-.948-1.316L22,29.834A11,11,0,1,1,38,39.8Z"/><circle cx="48" cy="48" r="1"/><circle cx="16" cy="48" r="1"/><circle cx="32" cy="9" r="1"/><circle cx="9" cy="32" r="1"/><circle cx="16" cy="16" r="1"/><path d="M33,21a9.01,9.01,0,0,0-9,9,1,1,0,0,1-.052.316L22.388,35H25a1,1,0,0,1,1,1v3h3a1,1,0,0,1,1,1v3h6V39.162a1,1,0,0,1,.6-.916A9,9,0,0,0,33,21Zm4.952,12.478A3.99,3.99,0,0,1,30,33V27a3.99,3.99,0,0,1,7.951-.485,3.983,3.983,0,0,1,0,6.963Z"/><path d="M53.2,26.127a21.922,21.922,0,0,0-2.057-4.963,1,1,0,0,1,.055-1.075l3.537-4.951L48.862,9.264,43.911,12.8a.993.993,0,0,1-1.075.055A21.922,21.922,0,0,0,37.873,10.8a1,1,0,0,1-.72-.8l-1-6H27.847l-1,6a1,1,0,0,1-.72.8,21.922,21.922,0,0,0-4.963,2.057.993.993,0,0,1-1.075-.055L15.138,9.264,9.264,15.138,12.8,20.089a1,1,0,0,1,.055,1.075A21.922,21.922,0,0,0,10.8,26.127a1,1,0,0,1-.8.72l-6,1v8.306l6,1a1,1,0,0,1,.8.72,21.922,21.922,0,0,0,2.057,4.963,1,1,0,0,1-.055,1.075L9.264,48.862l5.874,5.874L20.089,51.2a1,1,0,0,1,1.075-.055A21.922,21.922,0,0,0,26.127,53.2a1,1,0,0,1,.72.8l1,6h8.306l1-6a1,1,0,0,1,.72-.8,21.922,21.922,0,0,0,4.963-2.057,1,1,0,0,1,1.075.055l4.951,3.537,5.874-5.874L51.2,43.911a1,1,0,0,1-.055-1.075A21.922,21.922,0,0,0,53.2,37.873a1,1,0,0,1,.8-.72l6-1V27.847l-6-1A1,1,0,0,1,53.2,26.127ZM9,35a3,3,0,1,1,3-3A3,3,0,0,1,9,35ZM32,6a3,3,0,1,1-3,3A3,3,0,0,1,32,6ZM16,13a3,3,0,1,1-3,3A3,3,0,0,1,16,13Zm0,38a3,3,0,1,1,3-3A3,3,0,0,1,16,51Zm16,7a3,3,0,1,1,3-3A3,3,0,0,1,32,58Zm0-8A18,18,0,1,1,50,32,18.021,18.021,0,0,1,32,50Zm16,1a3,3,0,1,1,3-3A3,3,0,0,1,48,51Zm0-32a3,3,0,1,1,3-3A3,3,0,0,1,48,19ZM58,32a3,3,0,1,1-3-3A3,3,0,0,1,58,32Z"/><circle cx="48" cy="16" r="1"/><circle cx="55" cy="32" r="1"/></g></svg>
