<?xml version="1.0"?>
<svg xmlns="http://www.w3.org/2000/svg" viewBox="0 0 64 64" width="512" height="512"><g id="Cloud"><path d="M41,18H23a1,1,0,0,0-1,1V31a1,1,0,0,0,1,1H41a1,1,0,0,0,1-1V19A1,1,0,0,0,41,18ZM27,30H25V28h2Zm-3-7a3,3,0,1,1,3,3A3,3,0,0,1,24,23Zm11,7H29V28h6Zm4,0H37V28h2Zm-2-4a3,3,0,1,1,3-3A3,3,0,0,1,37,26Z"/><circle cx="32" cy="57" r="3"/><circle cx="8" cy="49" r="3"/><circle cx="37" cy="23" r="1"/><circle cx="27" cy="23" r="1"/><circle cx="44" cy="53" r="3"/><circle cx="56" cy="49" r="3"/><circle cx="20" cy="53" r="3"/><path d="M27,15v1H37V15a1,1,0,0,0-1-1H28A1,1,0,0,0,27,15Z"/><path d="M56,23a9,9,0,0,0-6.717-8.7,1,1,0,0,1-.689-.634A7.01,7.01,0,0,0,42,9a6.909,6.909,0,0,0-3.218.789,1,1,0,0,1-1.321-.378,10.981,10.981,0,0,0-20.3,3.793,1,1,0,0,1-.906.835A9,9,0,0,0,17,32h3.184A2.966,2.966,0,0,1,20,31V19a3,3,0,0,1,3-3h2V15a3,3,0,0,1,3-3h1V11a3,3,0,0,1,6,0v1h1a3,3,0,0,1,3,3v1h2a3,3,0,0,1,3,3V31a2.966,2.966,0,0,1-.184,1H47A9.011,9.011,0,0,0,56,23Z"/><path d="M32,10a1,1,0,0,0-1,1v1h2V11A1,1,0,0,0,32,10Z"/><path d="M33,34V52.1a5.05,5.05,0,0,0-2,0V34Z"/><path d="M27,34v7a3.009,3.009,0,0,1-3,3H22a1,1,0,0,0-1,1v3.1a5.05,5.05,0,0,0-2,0V45a3.009,3.009,0,0,1,3-3h2a1,1,0,0,0,1-1V34Z"/><path d="M17,34v3a3.009,3.009,0,0,1-3,3H10a1,1,0,0,0-1,1v3.1a5.05,5.05,0,0,0-2,0V41a3.009,3.009,0,0,1,3-3h4a1,1,0,0,0,1-1V34Z"/><path d="M45,45v3.1a5.05,5.05,0,0,0-2,0V45a1,1,0,0,0-1-1H40a3.009,3.009,0,0,1-3-3V34h2v7a1,1,0,0,0,1,1h2A3.009,3.009,0,0,1,45,45Z"/><path d="M57,41v3.1a5.05,5.05,0,0,0-2,0V41a1,1,0,0,0-1-1H50a3.009,3.009,0,0,1-3-3V34h2v3a1,1,0,0,0,1,1h4A3.009,3.009,0,0,1,57,41Z"/></g></svg>
