<?xml version="1.0"?>
<svg xmlns="http://www.w3.org/2000/svg" viewBox="0 0 64 64" width="512" height="512"><g id="bug"><path d="M60,51a3,3,0,0,0-6,0v6a3,3,0,0,0,6,0Zm-2,2H56V49h2Z"/><ellipse cx="32" cy="25" rx="4" ry="5"/><path d="M7,34H57V7H7ZM25.586,22l-3.293-3.293,1.414-1.414L26.414,20h1.415a6.163,6.163,0,0,1,1.345-1.172,3.978,3.978,0,0,1,1.019-6.377L28,11.721V8h2v2.279l2,.667,2-.667V8h2v3.721l-2.193.73a3.978,3.978,0,0,1,1.019,6.377A6.163,6.163,0,0,1,36.171,20h1.211L39.1,16.553l1.79.894L38.618,22H37.413a7.861,7.861,0,0,1,.519,2h3.6l2.3,3.445-1.664,1.11L40.465,26H37.932a7.836,7.836,0,0,1-.528,2.02l2.21-.028L41.9,32.553l-1.79.894-1.719-3.439-2.229.028a5.381,5.381,0,0,1-8.314,0l-2.229-.028L23.9,33.447l-1.79-.894,2.281-4.561,2.21.028A7.836,7.836,0,0,1,26.068,26H24.414l-2.707,2.707-1.414-1.414L23.586,24h2.482a7.861,7.861,0,0,1,.519-2Z"/><path d="M60,39V5a1,1,0,0,0-1-1H5A1,1,0,0,0,4,5V39a1,1,0,0,0,1,1H59A1,1,0,0,0,60,39ZM5,5H59V36H5ZM29,39H27V37h2Zm4,0H31V37h2Zm4,0H35V37h2Z"/><circle cx="32" cy="16" r="2"/><path d="M44,50H5a1,1,0,0,0-1,1v8a1,1,0,0,0,1,1H45a1,1,0,0,0,1-1V52A2,2,0,0,0,44,50ZM8,59H6V57H8Zm0-3H6V54H8Zm0-3H6V51H8Zm4,6H10V57h2Zm0-3H10V54h2Zm0-3H10V51h2Zm18-2h2v2H30Zm0,3h2v2H30Zm-4-3h2v2H26Zm0,3h2v2H26Zm-4-3h2v2H22Zm0,3h2v2H22Zm-4-3h2v2H18Zm0,3h2v2H18Zm-4-3h2v2H14Zm0,3h2v2H14Zm22,5H14V57H36Zm0-3H34V54h2Zm0-3H34V51h2Zm4,6H38V57h2Zm0-3H38V54h2Zm0-3H38V51h2Zm4,6H42V57h2Zm0-3H42V54h2Zm0-3H42V51h2Z"/><polygon points="36.445 42 27.555 42 23.805 48 40.195 48 36.445 42"/></g></svg>
