<svg version="1.1" viewBox="0.0 0.0 960.0 720.0" fill="none" stroke="none" stroke-linecap="square" stroke-miterlimit="10" 
    xmlns:xlink="http://www.w3.org/1999/xlink" 
    xmlns="http://www.w3.org/2000/svg">
    <clipPath id="p.0">
        <path d="m0 0l960.0 0l0 720.0l-960.0 0l0 -720.0z" clip-rule="nonzero"/>
    </clipPath>
    <g clip-path="url(#p.0)">
        <path fill="#000000" fill-opacity="0.0" d="m0 0l960.0 0l0 720.0l-960.0 0z" fill-rule="evenodd"/>
        <path fill="#000000" fill-opacity="0.0" d="m35.537983 122.91978l888.9134 0l0 506.61417l-888.9134 0z" fill-rule="evenodd"/>
        <path fill="#000000" d="m238.68886 198.0704q7.53125 0 12.734375 3.625q5.2031403 3.609375 5.2031403 8.8125q0 9.25 -5.7812653 14.90625q-5.78125 5.640625 -16.484375 5.640625q-16.78125 0 -25.46875 0.28125q-0.578125 3.46875 -5.203125 31.25q-5.203125 30.953125 -6.375 37.90625l-6.0625 37.890625q-6.375 42.53125 -10.125 71.1875q6.0625 -0.296875 16.484375 -0.296875q15.328125 0 20.828125 4.0625q5.5 4.046875 5.5 12.140625q0 7.515625 -5.9375 12.734375q-5.921875 5.203125 -16.625 5.203125q-7.234375 0 -22.859375 -0.578125q-14.46875 -0.578125 -19.09375 -0.578125q-18.234375 0 -39.937492 3.1875q-9.546875 1.4375 -13.59375 1.4375q-6.359375 0 -10.703125 -3.46875q-4.34375 -3.46875 -4.34375 -10.125q0 -10.421875 9.25 -16.203125q9.265625 -5.78125 26.046875 -6.078125l13.609367 -0.28125l0.859375 -6.375q6.953125 -46.28125 10.125 -65.390625l6.375 -37.890625q5.78125 -33.5625 10.40625 -69.15625l-24.296875 0.296875q-10.421875 0 -14.328125 -3.328125q-3.9062424 -3.328125 -3.9062424 -9.40625q0 -19.671875 28.359367 -21.125q13.3125 -0.578125 32.40625 -0.578125l52.9375 0.296875zm34.139297 245.0625q-12.71875 0 -19.23439 -6.9375q-6.515625 -6.953125 -6.515625 -18.234375q0 -13.03125 7.375 -20.84375q7.3906403 -7.8125 20.70314 -7.8125q12.71875 0 19.234375 6.234375q6.515625 6.21875 6.515625 18.359375q0 13.3125 -7.53125 21.28125q-7.515625 7.953125 -20.546875 7.953125zm283.84164 -241.59375q8.96875 1.734375 13.453125 6.078125q4.484375 4.34375 4.484375 10.125q0 9.546875 -5.359375 13.890625q-5.34375 4.328125 -16.921875 3.46875q-26.03125 -2.03125 -40.65622 -2.75q-14.609375 -0.71875 -38.328125 -1.015625q-10.703125 53.234375 -19.671875 107.046875q-3.1875 19.6875 -6.65625 45.578125q-3.46875 25.890625 -4.625 41.8125q-0.578125 8.390625 -6.953125 12.875q-6.359375 4.484375 -15.328125 4.484375q-9.546875 0 -14.765625 -4.625q-5.203125 -4.640625 -5.203125 -12.15625q0 -6.953125 2.171875 -23.0q2.171875 -16.0625 5.0625 -33.71875q3.1875 -17.640625 4.921875 -30.671875q3.1875 -21.984375 7.234375 -43.671875q4.046875 -21.703125 8.09375 -41.09375q0.875 -4.34375 2.03125 -9.984375q1.15625 -5.640625 2.59375 -12.578125q-28.34375 0.859375 -44.546875 4.625q-16.203125 3.765625 -23.0 10.5625q-6.796875 6.796875 -6.796875 17.5q0 9.84375 5.78125 18.8125q1.15625 2.015625 1.15625 4.328125q0 5.5 -6.515625 10.28125q-6.5 4.765625 -13.453125 4.765625q-4.90625 0 -8.09375 -2.890625q-5.78125 -4.921875 -9.546875 -14.03125q-3.765625 -9.109375 -3.765625 -20.6875q0 -24.59375 16.046875 -39.484375q16.0625 -14.90625 48.90625 -21.84375q32.84375 -6.953125 84.34375 -6.953125q31.828125 0 50.765594 1.15625q18.953125 1.15625 33.140625 3.765625zm-7.822693 241.59375q-12.71875 0 -19.234375 -6.9375q-6.515625 -6.953125 -6.515625 -18.234375q0 -13.03125 7.375 -20.84375q7.390625 -7.8125 20.703125 -7.8125q12.71875 0 19.234375 6.234375q6.515625 6.21875 6.515625 18.359375q0 13.3125 -7.53125 21.28125q-7.515625 7.953125 -20.546875 7.953125zm135.12292 0.859375q-38.484375 0 -61.625 -14.609375q-23.140625 -14.609375 -23.140625 -44.703125q0 -15.90625 5.484375 -24.296875q5.5 -8.390625 16.203125 -8.390625q7.8125 0 12.734375 4.046875q4.921875 4.046875 4.921875 10.421875q0 5.78125 -0.875 10.125q0 1.15625 -0.4375 4.046875q-0.421875 2.890625 -0.421875 6.078125q0 13.015625 13.15625 19.390625q13.171875 6.359375 36.890625 6.359375q24.59375 0 38.484375 -8.828125q13.890625 -8.828125 13.890625 -24.734375q0 -9.84375 -6.375 -16.921875q-6.359375 -7.09375 -15.90625 -11.859375q-9.546875 -4.78125 -26.90625 -11.734375q-22.28125 -8.671875 -36.3125 -16.484375q-14.03125 -7.8125 -24.015625 -21.265625q-9.984375 -13.453125 -9.984375 -33.421875q0 -20.828125 11.140625 -37.03125q11.140625 -16.203125 32.109375 -25.171875q20.984375 -8.96875 49.34375 -8.96875q21.109375 0 38.765625 6.21875q17.65625 6.21875 28.203125 18.953125q10.5625 12.734375 10.5625 31.25q0 18.21875 -5.5 27.484375q-5.484375 9.265625 -16.1875 9.265625q-7.53125 0 -12.59375 -4.625q-5.0625 -4.640625 -5.0625 -11.0q0 -5.5 0.875 -10.125q0.859375 -8.6875 0.859375 -11.0q0 -12.15625 -11.859375 -18.515625q-11.859375 -6.375 -29.515625 -6.375q-24.875 0 -38.046875 9.125q-13.15625 9.109375 -13.15625 25.59375q0 11.0 6.796875 18.8125q6.796875 7.8125 16.921875 13.03125q10.125 5.203125 28.359375 12.4375q21.984375 8.96875 35.296875 16.203125q13.3125 7.21875 22.703125 19.671875q9.40625 12.4375 9.40625 30.65625q0 34.140625 -25.890625 52.515625q-25.890625 18.375 -69.296875 18.375zm139.73877 -0.859375q-12.71875 0 -19.234375 -6.9375q-6.515625 -6.953125 -6.515625 -18.234375q0 -13.03125 7.375 -20.84375q7.390625 -7.8125 20.703125 -7.8125q12.71875 0 19.234375 6.234375q6.515625 6.21875 6.515625 18.359375q0 13.3125 -7.53125 21.28125q-7.515625 7.953125 -20.546875 7.953125z" fill-rule="nonzero"/>
        <path fill="#999999" d="m218.04048 519.1048q1.796875 0 3.046875 0.875q1.25 0.859375 1.25 2.109375q0 2.21875 -1.390625 3.578125q-1.390625 1.34375 -3.953125 1.34375q-4.015625 0 -6.09375 0.0625q-0.140625 0.84375 -1.25 7.484375q-1.25 7.421875 -1.53125 9.09375l-1.453125 9.078125q-1.515625 10.1875 -2.421875 17.046875q1.453125 -0.0625 3.953125 -0.0625q3.671875 0 4.984375 0.96875q1.328125 0.96875 1.328125 2.921875q0 1.796875 -1.421875 3.046875q-1.421875 1.25 -3.984375 1.25q-1.734375 0 -5.484375 -0.140625q-3.46875 -0.140625 -4.578125 -0.140625q-4.359375 0 -9.5625 0.765625q-2.296875 0.34375 -3.265625 0.34375q-1.515625 0 -2.546875 -0.84375q-1.046875 -0.828125 -1.046875 -2.421875q0 -2.484375 2.21875 -3.875q2.21875 -1.390625 6.234375 -1.453125l3.25 -0.078125l0.21875 -1.515625q1.65625 -11.09375 2.421875 -15.671875l1.53125 -9.078125q1.375 -8.046875 2.484375 -16.578125l-5.8125 0.078125q-2.5 0 -3.4375 -0.796875q-0.9375 -0.796875 -0.9375 -2.265625q0 -4.703125 6.796875 -5.0625q3.1875 -0.125 7.765625 -0.125l12.6875 0.0625zm8.317398 58.71875q-2.640625 0 -3.71875 -2.765625q-1.0625 -2.78125 -1.0625 -8.875q0 -9.015625 2.5625 -17.125q0.625 -2.015625 2.046875 -2.953125q1.421875 -0.9375 3.984375 -0.9375q1.390625 0 1.9375 0.359375q0.5625 0.34375 0.5625 1.3125q0 1.109375 -1.046875 4.984375q-0.6875 2.78125 -1.109375 4.859375q-0.40625 2.078125 -0.6875 5.125q2.28125 -5.953125 5.125 -9.703125q2.84375 -3.75 5.578125 -5.34375q2.75 -1.59375 5.03125 -1.59375q2.21875 0 3.359375 1.15625q1.140625 1.140625 1.140625 3.359375q0 1.796875 -0.75 6.796875q-0.703125 4.21875 -1.125 8.0q-0.40625 3.78125 -0.40625 8.421875q0 2.640625 -1.078125 3.78125q-1.078125 1.140625 -3.5 1.140625q-2.28125 0 -3.328125 -1.171875q-1.03125 -1.1875 -1.03125 -3.546875q0 -2.765625 0.96875 -9.140625q0.828125 -5.546875 0.828125 -7.078125q0 -1.109375 -0.765625 -1.109375q-0.890625 0 -2.53125 2.328125q-1.625 2.3125 -3.328125 6.140625q-1.6875 3.8125 -2.734375 8.03125q-0.765625 3.265625 -1.765625 4.40625q-1.0 1.140625 -3.15625 1.140625zm53.86728 -15.796875q0.765625 5.671875 2.21875 11.21875q0.28125 0.90625 0.28125 1.875q0 3.125 -3.8125 3.125q-2.15625 0 -3.296875 -1.171875q-1.140625 -1.1875 -2.109375 -4.453125l-0.078125 -0.265625q-2.625 3.25 -4.75 4.359375q-2.109375 1.109375 -4.890625 1.109375q-4.21875 0 -6.96875 -3.15625q-2.734375 -3.15625 -2.734375 -8.203125q0 -5.546875 2.359375 -10.265625q2.359375 -4.71875 6.453125 -7.734375q4.09375 -3.015625 9.140625 -3.640625q1.328125 -13.09375 5.03125 -22.796875q3.71875 -9.71875 9.875 -9.71875q2.984375 0 4.9531555 2.703125q1.984375 2.703125 1.984375 8.1875q0 7.625 -3.7500305 17.8125q-3.734375 10.1875 -9.90625 21.015625zm5.96875 -42.921875q-2.015625 0 -3.78125 10.265625q-1.765625 10.25 -2.390625 22.3125q7.6875 -16.625 7.6875 -27.03125q0 -2.640625 -0.453125 -4.09375q-0.4375 -1.453125 -1.0625 -1.453125zm-19.96875 51.71875q1.390625 0 2.671875 -1.03125q1.28125 -1.046875 3.28125 -4.03125q-0.6875 -5.0625 -0.6875 -10.46875q0 -2.140625 0.0625 -3.328125q-3.8125 1.109375 -6.3125 5.0625q-2.484375 3.953125 -2.484375 8.734375q0 5.0625 3.46875 5.0625zm30.147491 7.0q-3.25 0 -5.234375 -2.65625q-1.96875 -2.671875 -1.96875 -7.390625q0 -5.203125 0.6875 -9.53125q0.703125 -4.34375 2.296875 -9.1875q0.6875 -2.078125 1.9375 -2.984375q1.25 -0.90625 3.953125 -0.90625q1.53125 0 2.109375 0.484375q0.59375 0.484375 0.59375 1.46875q0 0.546875 -0.765625 3.734375q-0.6875 2.5625 -1.109375 4.640625q-1.390625 7.28125 -1.390625 9.71875q0 1.453125 0.34375 2.046875q0.359375 0.578125 1.125 0.578125q1.03125 0 2.625 -2.109375q1.59375 -2.109375 3.359375 -6.375q1.78125 -4.265625 3.375 -10.296875q0.546875 -2.078125 1.6875 -2.984375q1.15625 -0.90625 3.4375 -0.90625q1.53125 0 2.1875 0.796875q0.65625 0.796875 0.65625 2.390625q0 1.734375 -0.28125 3.859375q-0.28125 2.109375 -0.625 4.328125q-0.6875 4.4375 -1.109375 8.078125q-0.40625 3.640625 -0.40625 8.28125q0 2.640625 -1.078125 3.78125q-1.078125 1.140625 -3.5 1.140625q-2.5625 0 -3.578125 -1.34375q-1.0 -1.359375 -1.0 -5.234375q0 -0.765625 0.140625 -3.40625q-1.1875 4.859375 -3.515625 7.421875q-2.3125 2.5625 -4.953125 2.5625zm37.57843 1.53125q-3.59375 0 -5.515625 -1.671875q-1.90625 -1.65625 -1.90625 -3.734375q0 -1.8125 1.3125 -3.125q1.328125 -1.3125 3.890625 -1.3125q0.90625 0 2.109375 0.171875q1.21875 0.171875 1.84375 0.234375q-0.0625 -1.796875 -0.796875 -3.390625q-0.71875 -1.59375 -1.828125 -3.078125q-1.109375 -1.5 -2.09375 -2.609375q-2.140625 4.09375 -4.265625 6.796875q-2.109375 2.703125 -4.59375 5.125q-1.25 1.25 -2.640625 1.25q-1.109375 0 -1.796875 -0.796875q-0.703125 -0.796875 -0.703125 -1.96875q0 -1.390625 0.96875 -2.5625l0.90625 -1.109375q3.8125 -4.71875 5.75 -7.765625q1.25 -2.015625 2.53125 -4.78125q1.28125 -2.78125 3.359375 -7.5625q1.328125 -3.046875 5.484375 -3.046875q1.9375 0 2.703125 0.34375q0.765625 0.34375 0.765625 1.109375q0 0.40625 -0.28125 1.3125q-0.28125 0.90625 -0.765625 1.796875q-1.25 2.5 -1.25 4.234375q0 1.046875 0.734375 2.296875q0.734375 1.234375 2.25 3.109375q2.21875 2.90625 3.359375 4.953125q1.15625 2.046875 1.15625 4.484375q0 2.90625 -1.359375 5.515625q-1.34375 2.59375 -3.78125 4.1875q-2.421875 1.59375 -5.546875 1.59375zm69.409 -59.421875q2.140625 0.421875 3.21875 1.46875q1.078125 1.03125 1.078125 2.421875q0 2.28125 -1.296875 3.328125q-1.28125 1.03125 -4.046875 0.828125q-6.234375 -0.484375 -9.75 -0.65625q-3.5 -0.171875 -9.171875 -0.25q-2.578125 12.765625 -4.71875 25.65625q-0.765625 4.71875 -1.59375 10.921875q-0.828125 6.203125 -1.109375 10.015625q-0.140625 2.015625 -1.671875 3.09375q-1.515625 1.0625 -3.671875 1.0625q-2.28125 0 -3.53125 -1.109375q-1.25 -1.109375 -1.25 -2.90625q0 -1.671875 0.515625 -5.515625q0.53125 -3.84375 1.21875 -8.078125q0.765625 -4.21875 1.171875 -7.34375q0.765625 -5.265625 1.734375 -10.46875q0.96875 -5.203125 1.953125 -9.84375q0.203125 -1.046875 0.46875 -2.390625q0.28125 -1.359375 0.640625 -3.015625q-6.796875 0.203125 -10.6875 1.109375q-3.875 0.890625 -5.515625 2.53125q-1.625 1.625 -1.625 4.1875q0 2.359375 1.390625 4.515625q0.28125 0.484375 0.28125 1.03125q0 1.3125 -1.5625 2.46875q-1.5625 1.140625 -3.21875 1.140625q-1.1875 0 -1.953125 -0.703125q-1.375 -1.171875 -2.28125 -3.359375q-0.90625 -2.1875 -0.90625 -4.953125q0 -5.890625 3.84375 -9.453125q3.859375 -3.578125 11.71875 -5.234375q7.875 -1.671875 20.21875 -1.671875q7.625 0 12.15625 0.28125q4.546875 0.265625 7.953125 0.890625zm21.352936 34.734375q1.515625 0 2.59375 1.078125q1.078125 1.078125 1.078125 2.671875q0 0.90625 -0.421875 1.9375q-1.109375 2.5625 -3.125 4.296875q-2.0 1.734375 -4.4375 1.734375q-1.9375 0 -3.296875 -1.375q-1.34375 -1.390625 -1.34375 -3.75q0 -1.328125 0.140625 -2.84375q0.140625 -1.109375 0.140625 -1.53125q0 -0.546875 -0.25 -0.828125q-0.234375 -0.28125 -0.578125 -0.28125q-0.96875 0 -2.640625 2.328125q-1.65625 2.3125 -3.328125 6.140625q-1.65625 3.8125 -2.703125 8.03125q-0.765625 3.328125 -1.734375 4.4375q-0.96875 1.109375 -3.1875 1.109375q-2.640625 0 -3.71875 -2.765625q-1.0625 -2.78125 -1.0625 -8.875q0 -9.015625 2.5625 -17.125q0.625 -2.015625 2.046875 -2.953125q1.421875 -0.9375 3.984375 -0.9375q1.390625 0 1.9375 0.359375q0.5625 0.34375 0.5625 1.3125q0 1.109375 -1.046875 4.984375q-0.6875 2.78125 -1.109375 4.859375q-0.40625 2.078125 -0.6875 5.125q2.28125 -5.953125 5.125 -9.703125q2.84375 -3.75 5.546875 -5.34375q2.703125 -1.59375 4.921875 -1.59375q2.015625 0 3.078125 1.15625q1.078125 1.140625 1.078125 3.359375q0 1.3125 -0.75 4.984375l0.625 0zm31.114288 9.4375q0.90625 0 1.421875 0.828125q0.53125 0.828125 0.53125 2.28125q0 2.5 -1.1875 4.296875q-1.9375 2.984375 -5.09375 4.65625q-3.15625 1.65625 -7.515625 1.65625q-6.65625 0 -10.34375 -3.984375q-3.671875 -3.984375 -3.671875 -10.78125q0 -4.78125 2.015625 -8.90625q2.015625 -4.125 5.578125 -6.546875q3.578125 -2.4375 8.078125 -2.4375q4.03125 0 6.453125 2.40625q2.421875 2.390625 2.421875 6.46875q0 4.78125 -3.4375 8.21875q-3.421875 3.4375 -11.671875 5.4375q1.65625 3.1875 5.609375 3.1875q2.84375 0 4.671875 -1.3125q1.84375 -1.3125 4.28125 -4.4375q0.828125 -1.03125 1.859375 -1.03125zm-11.359375 -12.140625q-2.5625 0 -4.34375 2.984375q-1.765625 2.984375 -1.765625 7.203125l0 0.140625q4.09375 -0.96875 6.453125 -2.90625q2.359375 -1.9375 2.359375 -4.5q0 -1.328125 -0.734375 -2.125q-0.71875 -0.796875 -1.96875 -0.796875zm39.85321 12.140625q0.90625 0 1.421875 0.828125q0.53125 0.828125 0.53125 2.28125q0 2.5 -1.1875 4.296875q-1.9375 2.984375 -5.09375 4.65625q-3.15625 1.65625 -7.515625 1.65625q-6.65625 0 -10.34375 -3.984375q-3.671875 -3.984375 -3.671875 -10.78125q0 -4.78125 2.015625 -8.90625q2.015625 -4.125 5.578125 -6.546875q3.578125 -2.4375 8.078125 -2.4375q4.03125 0 6.453125 2.40625q2.421875 2.390625 2.421875 6.46875q0 4.78125 -3.4375 8.21875q-3.421875 3.4375 -11.671875 5.4375q1.65625 3.1875 5.609375 3.1875q2.84375 0 4.671875 -1.3125q1.84375 -1.3125 4.28125 -4.4375q0.828125 -1.03125 1.859375 -1.03125zm-11.359375 -12.140625q-2.5625 0 -4.34375 2.984375q-1.765625 2.984375 -1.765625 7.203125l0 0.140625q4.09375 -0.96875 6.453125 -2.90625q2.359375 -1.9375 2.359375 -4.5q0 -1.328125 -0.734375 -2.125q-0.71875 -0.796875 -1.96875 -0.796875zm52.75638 26.0625q-9.21875 0 -14.7655945 -3.5q-5.546875 -3.5 -5.546875 -10.703125q0 -3.8125 1.3125 -5.8125q1.3125 -2.015625 3.890625 -2.015625q1.8593445 0 3.0312195 0.96875q1.1875 0.96875 1.1875 2.484375q0 1.390625 -0.203125 2.4375q0 0.265625 -0.109375 0.96875q-0.09375 0.6875 -0.09375 1.453125q0 3.125 3.140625 4.65625q3.15625 1.515625 8.84375 1.515625q5.890625 0 9.21875 -2.109375q3.328125 -2.125 3.328125 -5.9375q0 -2.359375 -1.53125 -4.046875q-1.515625 -1.703125 -3.8125 -2.84375q-2.28125 -1.15625 -6.4375 -2.8125q-5.34375 -2.078125 -8.703125 -3.953125q-3.359375 -1.875 -5.75 -5.09375q-2.3905945 -3.21875 -2.3905945 -8.015625q0 -4.984375 2.6718445 -8.859375q2.671875 -3.890625 7.6875 -6.03125q5.03125 -2.15625 11.828125 -2.15625q5.0625 0 9.28125 1.5q4.234375 1.484375 6.765625 4.53125q2.53125 3.046875 2.53125 7.484375q0 4.375 -1.328125 6.59375q-1.3125 2.21875 -3.875 2.21875q-1.796875 0 -3.015625 -1.109375q-1.21875 -1.109375 -1.21875 -2.640625q0 -1.3125 0.21875 -2.421875q0.203125 -2.078125 0.203125 -2.640625q0 -2.90625 -2.84375 -4.421875q-2.84375 -1.53125 -7.0625 -1.53125q-5.96875 0 -9.125 2.1875q-3.15625 2.171875 -3.15625 6.125q0 2.640625 1.625 4.515625q1.640625 1.859375 4.0625 3.109375q2.421875 1.25 6.796875 2.984375q5.265625 2.140625 8.453125 3.875q3.1875 1.734375 5.4375 4.71875q2.265625 2.984375 2.265625 7.34375q0 8.1875 -6.21875 12.59375q-6.203125 4.390625 -16.59375 4.390625zm40.419373 -0.203125q-4.09375 0 -6.96875 -2.046875q-2.875 -2.046875 -4.34375 -5.375q-1.453125 -3.328125 -1.453125 -7.140625q0 -5.265625 1.96875 -9.390625q1.984375 -4.125 5.375 -6.4375q3.40625 -2.328125 7.640625 -2.328125q4.09375 0 7.0 2.046875q2.90625 2.046875 4.359375 5.375q1.46875 3.328125 1.46875 7.140625q0 5.265625 -2.015625 9.390625q-2.015625 4.125 -5.453125 6.453125q-3.421875 2.3125 -7.578125 2.3125zm0.765625 -7.484375q2.34375 0 3.96875 -2.5625q1.640625 -2.5625 1.640625 -7.484375q0 -3.8125 -1.390625 -5.75q-1.375 -1.953125 -3.328125 -1.953125q-2.484375 0 -4.125 2.53125q-1.625 2.53125 -1.625 7.515625q0 3.953125 1.390625 5.828125q1.390625 1.875 3.46875 1.875zm38.952454 -2.640625q0.765625 -0.6875 1.53125 -0.6875q0.828125 0 1.34375 0.9375q0.53125 0.9375 0.53125 2.25q0 2.90625 -2.078125 4.640625q-3.609375 2.984375 -8.1875 2.984375q-6.59375 0 -9.640625 -5.5q-3.046875 -5.515625 -3.046875 -14.390625q0 -8.46875 2.1875 -19.28125q2.1875 -10.8125 6.4375 -18.578125q4.265625 -7.765625 10.15625 -7.765625q3.328125 0 5.234375 3.09375q1.90625 3.078125 1.90625 8.828125q0 8.25 -4.546875 19.140625q-4.53125 10.890625 -12.359375 21.484375q0.484375 2.84375 1.734375 4.09375q1.25 1.25 3.390625 1.25q1.1875 0 2.671875 -0.6875q1.484375 -0.703125 2.734375 -1.8125zm-2.28125 -48.53125q-1.59375 0 -3.609375 5.765625q-2.015625 5.75 -3.546875 14.28125q-1.515625 8.53125 -1.65625 16.359375q4.921875 -8.109375 7.828125 -16.25q2.921875 -8.15625 2.921875 -14.875q0 -5.28125 -1.9375 -5.28125zm14.965881 58.65625q-3.25 0 -5.234375 -2.65625q-1.96875 -2.671875 -1.96875 -7.390625q0 -5.203125 0.6875 -9.53125q0.703125 -4.34375 2.296875 -9.1875q0.6875 -2.078125 1.9375 -2.984375q1.25 -0.90625 3.953125 -0.90625q1.53125 0 2.109375 0.484375q0.59375 0.484375 0.59375 1.46875q0 0.546875 -0.765625 3.734375q-0.6875 2.5625 -1.109375 4.640625q-1.390625 7.28125 -1.390625 9.71875q0 1.453125 0.34375 2.046875q0.359375 0.578125 1.125 0.578125q1.03125 0 2.625 -2.109375q1.59375 -2.109375 3.359375 -6.375q1.78125 -4.265625 3.375 -10.296875q0.546875 -2.078125 1.6875 -2.984375q1.15625 -0.90625 3.4375 -0.90625q1.53125 0 2.1875 0.796875q0.65625 0.796875 0.65625 2.390625q0 1.734375 -0.28125 3.859375q-0.28125 2.109375 -0.625 4.328125q-0.6875 4.4375 -1.109375 8.078125q-0.40625 3.640625 -0.40625 8.28125q0 2.640625 -1.078125 3.78125q-1.078125 1.140625 -3.5 1.140625q-2.5625 0 -3.578125 -1.34375q-1.0 -1.359375 -1.0 -5.234375q0 -0.765625 0.140625 -3.40625q-1.1875 4.859375 -3.515625 7.421875q-2.3125 2.5625 -4.953125 2.5625zm36.125305 -26.0625q-0.140625 3.46875 -0.140625 5.40625q0 4.984375 0.515625 7.796875q0.53125 2.8125 1.734375 4.03125q1.21875 1.203125 3.375 1.203125q1.109375 0 2.625 -0.6875q1.53125 -0.703125 2.78125 -1.8125q0.75 -0.6875 1.515625 -0.6875q0.84375 0 1.359375 0.9375q0.515625 0.9375 0.515625 2.25q0 1.3125 -0.515625 2.5625q-0.515625 1.25 -1.5625 2.078125q-3.609375 2.984375 -8.1875 2.984375q-6.578125 0 -9.640625 -5.5q-3.046875 -5.515625 -3.046875 -14.390625q0 -3.046875 0.21875 -6.171875l-2.703125 0q-2.078125 0 -2.8125 -0.765625q-0.734375 -0.765625 -0.734375 -2.421875q0 -3.890625 3.125 -3.890625l3.953125 0q1.171875 -7.625 3.59375 -13.921875q2.4375 -6.3125 5.859375 -10.046875q3.4375 -3.75 7.390625 -3.75q2.921875 0 4.578125 2.5625q1.671875 2.5625 1.671875 6.4375q0 10.75 -9.015625 18.71875l7.765625 0q1.109375 0 1.59375 0.484375q0.484375 0.484375 0.484375 1.8125q0 4.78125 -7.84375 4.78125l-8.453125 0zm7.34375 -28.15625q-1.03125 0 -2.3125 2.609375q-1.28125 2.59375 -2.4375 7.203125q-1.140625 4.609375 -1.90625 10.234375q4.09375 -3.546875 6.140625 -7.9375q2.046875 -4.40625 2.046875 -8.015625q0 -4.09375 -1.53125 -4.09375zm19.413757 17.0q-2.90625 0 -4.359375 -1.359375q-1.453125 -1.359375 -1.453125 -3.78125q0 -2.421875 1.90625 -4.046875q1.90625 -1.640625 4.75 -1.640625q2.5625 0 4.15625 1.25q1.59375 1.25 1.59375 3.53125q0 2.78125 -1.8125 4.421875q-1.796875 1.625 -4.78125 1.625zm-6.65625 37.21875q-2.21875 0 -3.046875 -0.890625q-0.828125 -0.90625 -0.828125 -2.84375q0 -0.5625 0.140625 -1.953125q1.109375 -12.6875 3.671875 -23.078125q0.546875 -2.15625 1.828125 -3.015625q1.296875 -0.875 4.125 -0.875q2.984375 0 2.984375 2.4375q0 0.34375 -0.140625 1.3125q-3.109375 14.828125 -3.734375 24.890625q-0.140625 2.21875 -1.328125 3.125q-1.171875 0.890625 -3.671875 0.890625zm24.203308 0q-4.09375 0 -6.96875 -2.046875q-2.875 -2.046875 -4.34375 -5.375q-1.453125 -3.328125 -1.453125 -7.140625q0 -5.265625 1.96875 -9.390625q1.984375 -4.125 5.375 -6.4375q3.40625 -2.328125 7.640625 -2.328125q4.09375 0 7.0 2.046875q2.90625 2.046875 4.359375 5.375q1.46875 3.328125 1.46875 7.140625q0 5.265625 -2.015625 9.390625q-2.015625 4.125 -5.453125 6.453125q-3.421875 2.3125 -7.578125 2.3125zm0.765625 -7.484375q2.34375 0 3.96875 -2.5625q1.640625 -2.5625 1.640625 -7.484375q0 -3.8125 -1.390625 -5.75q-1.375 -1.953125 -3.328125 -1.953125q-2.484375 0 -4.125 2.53125q-1.625 2.53125 -1.625 7.515625q0 3.953125 1.390625 5.828125q1.390625 1.875 3.46875 1.875zm23.84314 7.484375q-2.640625 0 -3.71875 -2.765625q-1.0625 -2.78125 -1.0625 -8.875q0 -9.015625 2.5625 -17.125q0.625 -2.015625 2.046875 -2.953125q1.421875 -0.9375 3.984375 -0.9375q1.390625 0 1.9375 0.359375q0.5625 0.34375 0.5625 1.3125q0 1.109375 -1.046875 4.984375q-0.6875 2.78125 -1.109375 4.859375q-0.40625 2.078125 -0.6875 5.125q2.28125 -5.953125 5.125 -9.703125q2.84375 -3.75 5.578125 -5.34375q2.75 -1.59375 5.03125 -1.59375q2.21875 0 3.359375 1.15625q1.140625 1.140625 1.140625 3.359375q0 1.796875 -0.75 6.796875q-0.703125 4.21875 -1.125 8.0q-0.40625 3.78125 -0.40625 8.421875q0 2.640625 -1.078125 3.78125q-1.078125 1.140625 -3.5 1.140625q-2.28125 0 -3.328125 -1.171875q-1.03125 -1.1875 -1.03125 -3.546875q0 -2.765625 0.96875 -9.140625q0.828125 -5.546875 0.828125 -7.078125q0 -1.109375 -0.765625 -1.109375q-0.890625 0 -2.53125 2.328125q-1.625 2.3125 -3.328125 6.140625q-1.6875 3.8125 -2.734375 8.03125q-0.765625 3.265625 -1.765625 4.40625q-1.0 1.140625 -3.15625 1.140625zm41.5235 1.53125q-3.59375 0 -5.515625 -1.671875q-1.90625 -1.65625 -1.90625 -3.734375q0 -1.8125 1.3125 -3.125q1.328125 -1.3125 3.890625 -1.3125q0.90625 0 2.109375 0.171875q1.21875 0.171875 1.84375 0.234375q-0.0625 -1.796875 -0.796875 -3.390625q-0.71875 -1.59375 -1.828125 -3.078125q-1.109375 -1.5 -2.09375 -2.609375q-2.140625 4.09375 -4.265625 6.796875q-2.109375 2.703125 -4.59375 5.125q-1.25 1.25 -2.640625 1.25q-1.109375 0 -1.796875 -0.796875q-0.703125 -0.796875 -0.703125 -1.96875q0 -1.390625 0.96875 -2.5625l0.90625 -1.109375q3.8125 -4.71875 5.75 -7.765625q1.25 -2.015625 2.53125 -4.78125q1.28125 -2.78125 3.359375 -7.5625q1.328125 -3.046875 5.484375 -3.046875q1.9375 0 2.703125 0.34375q0.765625 0.34375 0.765625 1.109375q0 0.40625 -0.28125 1.3125q-0.28125 0.90625 -0.765625 1.796875q-1.25 2.5 -1.25 4.234375q0 1.046875 0.734375 2.296875q0.734375 1.234375 2.25 3.109375q2.21875 2.90625 3.359375 4.953125q1.15625 2.046875 1.15625 4.484375q0 2.90625 -1.359375 5.515625q-1.34375 2.59375 -3.78125 4.1875q-2.421875 1.59375 -5.546875 1.59375z" fill-rule="nonzero"/>
    </g>
</svg>